<?xml version="1.0" encoding="utf-8"?>
<!-- Generator: Adobe Illustrator 28.3.0, SVG Export Plug-In . SVG Version: 6.00 Build 0)  -->
<svg version="1.1" id="Layer_1" xmlns="http://www.w3.org/2000/svg" xmlns:xlink="http://www.w3.org/1999/xlink" x="0px" y="0px"
	 viewBox="0 0 2000 2000" enable-background="new 0 0 2000 2000" xml:space="preserve">
<g>
	<g>
		<path d="M786.45,1193.909h41.101l-3.775,21.495h-41.101l-7.968,48.859c-0.351,3.006-0.404,5.767-0.157,8.284
			c0.243,2.517,0.925,4.719,2.045,6.606c1.048,1.887,2.603,3.392,4.666,4.508c2.061,1.118,4.734,1.713,8.021,1.783
			c4.053,0.141,8.073-0.104,12.058-0.734c3.984-0.63,7.969-1.364,11.953-2.202l0.944,20.237c-5.103,2.795-10.731,4.647-16.881,5.557
			c-6.151,0.906-11.988,1.292-17.51,1.153c-6.362-0.071-11.832-1.207-16.409-3.409c-4.579-2.2-8.267-5.188-11.062-8.964
			c-2.866-3.774-4.841-8.23-5.923-13.368c-1.084-5.138-1.311-10.711-0.682-16.724l8.493-51.586h-25.164l3.775-21.495h25.164
			l4.823-27.785h28.414L786.45,1193.909z"/>
		<path d="M905.51,1302.062c-0.104-1.713-0.123-3.477-0.052-5.294c-1.538,1.398-3.111,2.708-4.718,3.931
			c-1.609,1.224-3.251,2.325-4.928,3.303c-3.216,1.818-6.642,3.199-10.275,4.141c-3.635,0.944-7.481,1.379-11.533,1.312
			c-4.754-0.071-9.279-0.892-13.578-2.465c-4.299-1.572-8.021-3.792-11.166-6.658c-3.216-2.795-5.698-6.22-7.444-10.276
			c-1.748-4.053-2.517-8.597-2.307-13.629c0.21-5.034,1.17-9.472,2.884-13.317c1.711-3.843,3.966-7.198,6.762-10.065
			c2.795-2.865,6.011-5.259,9.646-7.182c3.633-1.921,7.513-3.476,11.639-4.666c4.123-1.188,8.37-2.026,12.739-2.516
			c4.367-0.489,8.684-0.734,12.949-0.734l16.357,0.21l1.363-7.025c0.419-2.726,0.331-5.172-0.262-7.339
			c-0.595-2.166-1.591-4.019-2.988-5.557c-1.468-1.468-3.286-2.604-5.453-3.408c-2.167-0.803-4.613-1.24-7.339-1.311
			c-2.517-0.069-4.841,0.194-6.973,0.787c-2.132,0.594-4.002,1.52-5.609,2.779c-1.538,1.118-2.814,2.568-3.827,4.351
			c-1.014,1.783-1.766,3.827-2.254,6.134l-28.414,0.21c0.419-6.291,2.202-11.725,5.347-16.304c3.146-4.577,7.094-8.37,11.848-11.376
			c4.753-2.936,10.013-5.085,15.78-6.448c5.767-1.364,11.481-2.009,17.143-1.94c5.941,0.141,11.568,1.084,16.881,2.831
			c5.311,1.748,9.925,4.265,13.84,7.549c3.844,3.355,6.763,7.48,8.755,12.372c1.992,4.894,2.674,10.59,2.045,17.09l-7.863,48.756
			c-0.629,4.126-1.101,8.335-1.415,12.634c-0.315,4.3,0.262,8.477,1.73,12.53l-0.105,1.887h-28.204
			C905.945,1305.539,905.615,1303.776,905.51,1302.062z M889.835,1286.073c2.726-0.699,5.277-1.748,7.654-3.146
			c1.678-0.978,3.303-2.131,4.875-3.46c1.573-1.327,3.023-2.795,4.352-4.404l3.565-19.607l-12.896-0.105
			c-2.797,0-5.628,0.246-8.493,0.734c-2.867,0.49-5.557,1.258-8.073,2.307c-1.609,0.838-3.182,1.766-4.719,2.779
			c-1.538,1.014-2.867,2.254-3.984,3.722c-0.91,1.189-1.678,2.552-2.307,4.09c-0.629,1.538-1.084,3.249-1.363,5.136
			c-0.28,2.169-0.141,4.056,0.419,5.663c0.559,1.609,1.432,2.936,2.621,3.983c1.188,1.049,2.638,1.854,4.352,2.412
			c1.711,0.56,3.581,0.838,5.609,0.838C884.313,1287.087,887.109,1286.772,889.835,1286.073z"/>
		<path d="M1053.72,1146.307l-23.801,137.353h31.559l-4.193,23.697h-93.211l4.193-23.697h32.923l19.712-113.552h-33.027
			l4.194-23.801H1053.72z"/>
		<path d="M1114.537,1273.805l-5.872,33.552h-28.414l27.994-161.05h28.417l-15.835,90.695l9.438-9.122l35.962-33.971h36.07
			l-50.958,48.44l35.232,65.008h-33.134l-22.963-46.659L1114.537,1273.805z"/>
		<path d="M1278.21,1271.026c-0.699-1.292-1.678-2.428-2.936-3.407c-1.049-0.769-2.306-1.468-3.774-2.098
			c-1.468-0.629-2.936-1.118-4.404-1.468c-2.936-0.629-5.681-1.24-8.23-1.835c-2.553-0.593-4.947-1.17-7.183-1.73
			c-4.334-1.118-8.213-2.393-11.638-3.827c-3.425-1.431-6.78-3.266-10.066-5.504c-3.915-2.586-7.095-5.802-9.542-9.646
			c-2.447-3.843-3.564-8.457-3.355-13.84c0.21-7.06,2.36-13.071,6.449-18.034c4.089-4.963,9.138-8.842,15.151-11.639
			c4.261-2.026,8.997-3.581,14.207-4.666c5.206-1.083,10.222-1.589,15.045-1.52c5.731,0.07,11.325,0.822,16.776,2.254
			c5.453,1.433,10.344,3.653,14.68,6.658c4.263,3.005,7.705,6.798,10.328,11.376c2.621,4.579,3.931,10.049,3.931,16.409
			l-28.309-0.105c0.07-2.725-0.367-5.067-1.312-7.024c-0.943-1.957-2.254-3.565-3.931-4.823c-1.678-1.188-3.654-2.079-5.924-2.674
			c-2.271-0.593-4.701-0.891-7.288-0.891c-2.167,0-4.474,0.21-6.919,0.629c-2.447,0.419-4.755,1.119-6.921,2.097
			c-2.167,1.049-4.037,2.43-5.609,4.142c-1.572,1.713-2.569,3.827-2.988,6.343c-0.49,2.657-0.07,4.788,1.257,6.395
			c1.327,1.609,3.042,2.867,5.138,3.774c2.098,0.98,4.367,1.714,6.816,2.202c2.446,0.49,4.576,0.91,6.396,1.258
			c2.795,0.56,5.696,1.205,8.702,1.939c3.006,0.734,5.942,1.625,8.808,2.674c1.955,0.699,3.879,1.468,5.766,2.306
			c1.887,0.839,3.67,1.783,5.348,2.831c4.122,2.587,7.496,5.872,10.118,9.856c2.621,3.985,3.79,8.913,3.512,14.785
			c-0.35,7.13-2.515,13.054-6.5,17.771c-3.985,4.719-8.808,8.441-14.469,11.168c-4.964,2.237-10.311,3.879-16.042,4.927
			c-5.733,1.049-11.114,1.536-16.148,1.468c-5.802-0.071-11.499-0.91-17.091-2.517c-5.592-1.607-10.589-4.018-14.993-7.234
			c-4.474-3.146-8.091-7.079-10.852-11.796c-2.762-4.719-4.141-10.292-4.141-16.724l26.946,0.104
			c0.139,3.077,0.804,5.698,1.993,7.863c1.188,2.167,2.795,3.915,4.823,5.242c1.955,1.4,4.209,2.412,6.762,3.04
			c2.55,0.63,5.258,0.944,8.126,0.944c2.165,0,4.56-0.174,7.182-0.523c2.621-0.35,5.119-1.012,7.496-1.993
			c2.306-0.908,4.315-2.202,6.028-3.879c1.713-1.678,2.814-3.844,3.303-6.502C1279.083,1273.84,1278.907,1272.32,1278.21,1271.026z"
			/>
	</g>
	<g>
		<polygon points="446.395,690.435 259.331,1080.045 904.459,1080.045 1091.388,690.435 		"/>
		<path fill="#FFFFFF" d="M418.131,895.259c1.877-7.088,4.325-13.916,7.349-20.484c2.917-6.568,6.435-12.69,10.554-18.372
			c4.117-5.681,8.886-10.606,14.308-14.775c5.419-4.067,11.466-7.244,18.138-9.538c6.669-2.292,14.072-3.336,22.203-3.127
			c4.794,0.104,9.356,0.781,13.681,2.033c4.324,1.251,8.312,3.025,11.961,5.315c2.397,1.461,4.637,3.127,6.724,5.004
			c2.084,1.877,4.065,3.962,5.942,6.255l16.263-86.468h42.53l-41.592,240.172h-37.995l2.188-17.67
			c-2.501,2.816-5.134,5.371-7.897,7.662c-2.762,2.294-5.655,4.327-8.677,6.1c-4.065,2.294-8.443,4.065-13.134,5.315
			c-4.691,1.251-9.695,1.823-15.011,1.72c-7.506-0.21-14.073-1.59-19.702-4.143c-5.628-2.553-10.476-5.968-14.542-10.243
			c-4.066-4.167-7.403-9.015-10.007-14.541c-2.606-5.524-4.588-11.415-5.941-17.67c-1.356-6.148-2.165-12.481-2.424-18.997
			c-0.262-6.514-0.078-12.847,0.547-18.999l0.47-3.44C414.899,909.386,416.255,902.349,418.131,895.259z M455.267,932.552
			c-0.157,4.639,0.13,9.095,0.86,13.368c0.625,2.92,1.38,5.628,2.267,8.131c0.884,2.501,2.111,4.745,3.674,6.722
			c1.771,2.4,4.066,4.354,6.88,5.863c2.815,1.513,6.255,2.322,10.321,2.425c3.752,0.104,7.243-0.285,10.476-1.172
			c3.23-0.885,6.201-2.214,8.912-3.988c2.501-1.564,4.872-3.439,7.114-5.628c2.24-2.19,4.352-4.587,6.333-7.192l12.196-68.8
			c-1.148-2.917-2.529-5.524-4.143-7.818c-1.618-2.291-3.519-4.167-5.707-5.628c-2.087-1.564-4.456-2.736-7.116-3.519
			c-2.658-0.781-5.604-1.223-8.834-1.329c-7.089-0.103-13.134,1.461-18.138,4.691c-5.004,3.232-9.174,7.403-12.509,12.509
			c-3.338,5.108-5.89,10.789-7.662,17.044c-1.774,6.255-3.025,12.353-3.753,18.294l-0.313,3.284
			C455.709,923.666,455.423,927.915,455.267,932.552z"/>
		<path fill="#FFFFFF" d="M641.963,997.832c-9.331-4.273-17.176-10.058-23.533-17.355c-6.465-7.194-11.206-15.689-14.229-25.488
			c-3.025-9.798-4.013-20.43-2.971-31.897l0.626-6.411c1.04-9.382,3.256-18.451,6.646-27.206c3.385-8.757,7.74-16.783,13.055-24.081
			c3.753-4.794,7.87-9.304,12.353-13.525c4.48-4.221,9.278-7.897,14.386-11.024c6.462-3.854,13.499-6.853,21.108-8.991
			c7.608-2.136,15.636-3.101,24.079-2.893c11.779,0.313,21.943,2.764,30.492,7.349c8.545,4.588,15.48,10.686,20.795,18.294
			c5.211,7.716,8.782,16.523,10.711,26.425c1.927,9.905,2.214,20.327,0.861,31.273l-2.816,18.451H642.979
			c-0.21,5.421,0.47,10.452,2.033,15.089c1.564,4.639,3.854,8.677,6.879,12.118c2.919,3.44,6.568,6.176,10.945,8.21
			c4.38,2.031,9.382,3.103,15.012,3.206c8.858,0.313,17.223-1.224,25.095-4.613c7.87-3.386,14.828-8.21,20.875-14.464l19.232,23.611
			c-7.505,10.424-17.644,18.138-30.412,23.142c-12.77,5.002-25.878,7.451-39.324,7.349
			C661.743,1004.296,651.291,1002.106,641.963,997.832z M675.19,866.801c-4.482,2.087-8.443,4.901-11.883,8.444
			c-3.545,3.545-6.622,7.559-9.225,12.04c-2.607,4.484-4.901,9.018-6.881,13.603h68.957l0.781-3.908
			c0.729-4.587,0.626-8.86-0.313-12.822c-0.938-3.96-2.555-7.401-4.846-10.319c-2.4-2.917-5.395-5.239-8.992-6.959
			c-3.595-1.72-7.74-2.682-12.431-2.893C684.728,863.78,679.67,864.717,675.19,866.801z"/>
		<path fill="#FFFFFF" d="M797.622,832.089l42.062-0.157l18.606,119.148l0.313,11.413l4.378-12.666l53.945-117.74h45.502
			l-88.813,169.183h-39.717L797.622,832.089z"/>
		<g>
			<path d="M1071.422,832.089l38.152-0.157l-2.814,23.768c2.708-3.23,5.55-6.255,8.521-9.071c2.971-2.814,6.122-5.315,9.46-7.505
				c4.898-3.334,10.241-5.888,16.028-7.662c5.784-1.771,11.96-2.604,18.528-2.501c9.796,0.211,17.903,2.242,24.314,6.098
				c6.411,3.858,11.438,8.966,15.089,15.323c3.647,6.359,6.044,13.579,7.192,21.656c1.146,8.079,1.252,16.445,0.313,25.097
				l-17.357,104.136h-42.373l17.2-103.669c0.52-4.898,0.546-9.354,0.078-13.368c-0.47-4.011-1.591-7.479-3.362-10.398
				c-1.877-2.917-4.51-5.211-7.896-6.881c-3.388-1.666-7.74-2.553-13.056-2.658c-3.545-0.103-6.933,0.235-10.163,1.016
				c-3.232,0.783-6.255,1.955-9.069,3.519c-2.712,1.357-5.265,3.075-7.662,5.161c-2.399,2.085-4.691,4.378-6.881,6.879
				l-21.108,120.399h-42.53L1071.422,832.089z"/>
			<path d="M1266.325,997.989c-6.515-4.273-11.598-9.695-15.245-16.261c-3.962-7.194-6.359-15.036-7.192-23.533
				c-0.837-8.495-0.783-17.172,0.156-26.034l16.731-100.072h42.373l-16.73,100.541c-0.524,4.378-0.809,8.731-0.859,13.055
				c-0.054,4.327,0.546,8.21,1.797,11.65c1.146,3.439,3.179,6.253,6.1,8.443c2.917,2.19,7.086,3.338,12.507,3.44
				c4.274,0.104,8.262-0.313,11.963-1.251c3.698-0.939,7.114-2.346,10.241-4.223c2.501-1.564,4.872-3.413,7.114-5.55
				c2.24-2.136,4.352-4.559,6.333-7.27l20.797-118.835h42.53l-29.396,169.183h-38.308l3.284-23.923
				c-6.255,7.923-13.474,14.49-21.656,19.701c-8.185,5.211-17.332,7.712-27.441,7.505
				C1281.205,1004.45,1272.839,1002.262,1266.325,997.989z"/>
			<path d="M1560.364,761.101l-35.494,204.834h47.066l-6.255,35.338h-139.006l6.255-35.338h49.097l29.396-169.34h-49.254
				l6.255-35.494H1560.364z"/>
			<path d="M1729.097,761.101l-35.494,204.834h47.066l-6.255,35.338h-139.006l6.255-35.338h49.098l29.396-169.34h-49.254
				l6.255-35.494H1729.097z"/>
		</g>
	</g>
</g>
</svg>
